<svg width="61" height="80" viewBox="0 0 61 80" fill="none" xmlns="http://www.w3.org/2000/svg">
<path fill-rule="evenodd" clip-rule="evenodd" d="M64.3015 3.00028L78.0015 16.7003C81.8314 20.3491 81.988 26.4086 78.3515 30.2503L33.3515 75.2503C31.7217 76.8665 29.5855 77.8728 27.3015 78.1003L6.45151 80.0003H6.00151C4.67249 80.008 3.3951 79.4862 2.45151 78.5503C1.39669 77.4994 0.865137 76.033 1.00151 74.5503L3.15151 53.7003C3.37903 51.4163 4.38534 49.2801 6.00151 47.6503L51.0015 2.65028C54.8806 -0.626964 60.6001 -0.476451 64.3015 3.00028ZM47.6015 20.0003L61.0015 33.4003L71.0015 23.6503L57.3515 10.0003L47.6015 20.0003Z" fill="white"/>
</svg>
