<svg width="14" height="14" viewBox="0 0 14 14" fill="none" xmlns="http://www.w3.org/2000/svg">
<path fill-rule="evenodd" clip-rule="evenodd" d="M10.8836 0.832729L13.1669 3.11606C13.8052 3.7242 13.8313 4.73411 13.2253 5.3744L5.72525 12.8744C5.45361 13.1438 5.09758 13.3115 4.71692 13.3494L1.24192 13.6661H1.16692C0.945415 13.6673 0.732517 13.5804 0.575251 13.4244C0.399449 13.2492 0.310856 13.0048 0.333585 12.7577L0.691918 9.28273C0.729838 8.90207 0.897556 8.54603 1.16692 8.2744L8.66692 0.774395C9.31344 0.228188 10.2667 0.253274 10.8836 0.832729ZM8.10025 3.66606L10.3336 5.8994L12.0003 4.2744L9.72525 1.9994L8.10025 3.66606Z" fill="#919EAB"/>
</svg>
