<svg width="71" height="70" viewBox="0 0 71 70" fill="none" xmlns="http://www.w3.org/2000/svg">
<path d="M6 59.25C9.10541 60.6482 12.7456 60.0579 15.25 57.75L26 47.75L26 55C26 63.2843 32.7157 70 41 70L86 70C94.2843 70 101 63.2843 101 55L101 15C101 6.71573 94.2843 -5.87108e-07 86 -1.31134e-06L41 -5.24537e-06C32.7157 -5.9696e-06 26 6.71572 26 15L26 22.25L15.2 12.25C13.6101 10.8108 11.5446 10.0095 9.40001 9.99999C8.20986 10.0028 7.03389 10.2584 5.95 10.75C2.93347 11.9702 0.956594 14.896 0.950001 18.15L0.949999 51.85C0.964807 55.1163 2.96383 58.0456 6 59.25Z" fill="white"/>
</svg>
