<svg width="19" height="19" viewBox="0 0 19 19" fill="none" xmlns="http://www.w3.org/2000/svg">
<path fill-rule="evenodd" clip-rule="evenodd" d="M14.5966 12.9L17.9966 16.29C18.1859 16.4778 18.2924 16.7334 18.2924 17C18.2924 17.2666 18.1859 17.5222 17.9966 17.71C17.8089 17.8993 17.5533 18.0058 17.2866 18.0058C17.02 18.0058 16.7644 17.8993 16.5766 17.71L13.1866 14.31C11.7891 15.407 10.0633 16.0022 8.28662 16C3.86834 16 0.286621 12.4183 0.286621 8C0.286621 3.58172 3.86834 0 8.28662 0C12.7049 0 16.2866 3.58172 16.2866 8C16.2888 9.77666 15.6936 11.5025 14.5966 12.9ZM8.28662 2C4.97291 2 2.28662 4.68629 2.28662 8C2.28662 11.3137 4.97291 14 8.28662 14C11.6003 14 14.2866 11.3137 14.2866 8C14.2866 4.68629 11.6003 2 8.28662 2Z" fill="white"/>
</svg>
