<svg width="18" height="12" viewBox="0 0 18 12" fill="none" xmlns="http://www.w3.org/2000/svg">
<path d="M10.2497 6.00095C10.2497 6.69131 9.69009 7.25095 8.99973 7.25095C8.30938 7.25095 7.74973 6.69131 7.74973 6.00095C7.74973 5.3106 8.30938 4.75095 8.99973 4.75095C9.69009 4.75095 10.2497 5.3106 10.2497 6.00095Z" fill="#919EAB"/>
<path fill-rule="evenodd" clip-rule="evenodd" d="M8.77473 0.167618C13.7581 0.0176176 16.6914 4.65928 17.2247 5.58428C17.3736 5.84212 17.3736 6.15978 17.2247 6.41762C16.5081 7.66762 13.8331 11.7176 9.22473 11.8343H9.0164C4.10806 11.8343 1.29973 7.32595 0.774731 6.41762C0.625871 6.15978 0.625871 5.84212 0.774731 5.58428C1.49973 4.33428 4.1664 0.284284 8.77473 0.167618ZM6.08307 6.00095C6.08307 7.61178 7.3889 8.91762 8.99973 8.91762C10.6106 8.91762 11.9164 7.61178 11.9164 6.00095C11.9164 4.39012 10.6106 3.08428 8.99973 3.08428C7.3889 3.08428 6.08307 4.39012 6.08307 6.00095Z" fill="#919EAB"/>
</svg>
