<svg width="20" height="21" viewBox="0 0 20 21" fill="none" xmlns="http://www.w3.org/2000/svg">
<path d="M15.56 20.0002C15.4001 20.0008 15.2424 19.9631 15.1 19.8902L10 17.2202L4.90003 19.8902C4.56217 20.0679 4.15263 20.0377 3.84446 19.8124C3.53629 19.5871 3.38326 19.206 3.45003 18.8302L4.45003 13.2002L0.330032 9.2002C0.0680887 8.9388 -0.0280831 8.55412 0.0800325 8.2002C0.198277 7.83763 0.512455 7.57387 0.890032 7.5202L6.59003 6.6902L9.10003 1.5602C9.26712 1.21521 9.61671 0.996094 10 0.996094C10.3834 0.996094 10.7329 1.21521 10.9 1.5602L13.44 6.6802L19.14 7.5102C19.5176 7.56387 19.8318 7.82763 19.95 8.1902C20.0581 8.54412 19.962 8.9288 19.7 9.1902L15.58 13.1902L16.58 18.8202C16.6529 19.203 16.4968 19.5933 16.18 19.8202C15.999 19.9471 15.7809 20.0104 15.56 20.0002V20.0002Z" fill="#919EAB"/>
</svg>
